<svg width="17" height="15" viewBox="0 0 17 15" fill="none" xmlns="http://www.w3.org/2000/svg">
<path d="M16.1703 14.52C16.1703 13.64 16.1703 12.76 16.1703 11.88C16.1703 10.9633 16.1703 10.065 16.1703 9.18499C16.1703 6.36166 15.767 4.14332 14.9603 2.52999C14.1536 0.916655 12.742 0.0733218 10.7253 -1.27554e-05L9.68031 2.14499C10.817 2.25499 11.6053 2.80499 12.0453 3.79499C12.4486 4.74832 12.6503 6.26999 12.6503 8.35999H9.73531V14.52H16.1703ZM6.49031 14.52C6.49031 13.64 6.49031 12.76 6.49031 11.88C6.49031 10.9633 6.49031 10.065 6.49031 9.18499C6.49031 6.36166 6.08698 4.14332 5.28031 2.52999C4.47365 0.916655 3.06198 0.0733218 1.04531 -1.27554e-05L0.000312448 2.14499C1.13698 2.25499 1.92531 2.80499 2.36531 3.79499C2.76865 4.74832 2.97031 6.26999 2.97031 8.35999H0.0553117V14.52H6.49031Z" fill="url(#paint0_linear_2113_595)"/>
<defs>
<linearGradient id="paint0_linear_2113_595" x1="3.0304" y1="-19.635" x2="3.0304" y2="28.365" gradientUnits="userSpaceOnUse">
<stop stop-color="#FFF1BC"/>
<stop offset="1" stop-color="#FFB214"/>
</linearGradient>
</defs>
</svg>
